<?xml version="1.0" encoding="UTF-8" standalone="no"?>
<!DOCTYPE svg PUBLIC "-//W3C//DTD SVG 1.1//EN" "http://www.w3.org/Graphics/SVG/1.1/DTD/svg11.dtd">
<svg version="1.1" xmlns="http://www.w3.org/2000/svg" xmlns:xlink="http://www.w3.org/1999/xlink" preserveAspectRatio="xMidYMid meet" viewBox="128.1843971631207 6.382978723403596 394.8581560283694 630.6028368794318" width="390.86" height="626.6"><defs><path d="M272.97 7.53L274.77 7.71L276.56 7.97L278.32 8.29L280.06 8.68L281.77 9.14L283.45 9.67L285.11 10.25L286.73 10.9L288.32 11.61L289.88 12.38L291.4 13.21L292.89 14.09L294.34 15.03L295.75 16.03L297.12 17.07L298.45 18.17L299.73 19.31L300.97 20.5L302.16 21.74L303.31 23.03L304.4 24.35L305.45 25.72L306.44 27.13L307.38 28.58L308.26 30.07L309.09 31.59L309.86 33.15L310.57 34.74L311.22 36.37L311.81 38.02L312.33 39.7L312.79 41.42L313.18 43.15L313.5 44.91L313.76 46.7L313.94 48.51L314.05 50.33L314.09 52.18L314.09 265.33L316.56 265.19L324.61 265.03L332.66 265.19L335.14 265.33L335.14 49.45L335.17 47.72L335.28 46.01L335.45 44.32L335.68 42.65L335.99 41L336.35 39.38L336.78 37.78L337.27 36.2L337.82 34.66L338.43 33.14L339.09 31.65L339.81 30.19L340.59 28.77L341.41 27.38L342.29 26.02L343.22 24.7L344.2 23.42L345.22 22.18L346.29 20.98L347.41 19.82L348.57 18.71L349.77 17.63L351.01 16.61L352.29 15.63L353.61 14.7L354.96 13.83L356.35 13L357.78 12.23L359.24 11.51L360.73 10.84L362.24 10.23L363.79 9.69L365.36 9.2L366.96 8.77L368.59 8.4L370.24 8.1L371.91 7.86L373.6 7.69L375.31 7.58L377.03 7.55L410.6 7.55L412.45 7.59L414.28 7.7L416.08 7.88L417.87 8.14L419.63 8.46L421.37 8.85L423.08 9.31L424.76 9.83L426.42 10.42L428.04 11.07L429.63 11.78L431.19 12.55L432.71 13.38L434.2 14.26L435.65 15.2L437.06 16.19L438.43 17.24L439.76 18.33L441.04 19.48L442.28 20.67L443.47 21.91L444.62 23.19L445.71 24.52L446.76 25.89L447.75 27.3L448.69 28.75L449.57 30.24L450.4 31.76L451.17 33.32L451.88 34.91L452.53 36.53L453.12 38.19L453.64 39.87L454.1 41.58L454.49 43.32L454.81 45.08L455.07 46.87L455.25 48.67L455.36 50.5L455.4 52.35L455.4 312.52L457.37 314.18L462.78 319.09L467.98 324.19L472.98 329.48L477.76 334.95L482.32 340.59L486.65 346.4L490.75 352.36L494.6 358.49L498.22 364.76L501.57 371.18L504.67 377.73L507.51 384.42L510.07 391.23L512.36 398.16L514.36 405.2L516.07 412.35L517.48 419.6L518.59 426.95L519.39 434.39L519.88 441.91L520.04 449.51L519.88 457.11L519.39 464.63L518.59 472.07L517.48 479.42L516.07 486.67L514.36 493.82L512.36 500.86L510.07 507.79L507.51 514.6L504.67 521.29L501.57 527.84L498.22 534.26L494.6 540.53L490.75 546.65L486.65 552.62L482.32 558.43L477.76 564.07L472.98 569.54L467.98 574.82L462.78 579.93L457.37 584.84L451.77 589.56L445.98 594.07L440 598.37L433.85 602.46L427.53 606.33L421.04 609.97L414.39 613.38L407.6 616.55L400.65 619.48L393.57 622.16L386.36 624.57L379.02 626.73L371.55 628.62L363.98 630.24L356.3 631.57L348.51 632.62L340.63 633.37L332.66 633.83L324.61 633.99L316.56 633.83L308.6 633.37L300.72 632.62L292.93 631.57L285.25 630.24L277.67 628.62L270.21 626.73L262.87 624.57L255.66 622.16L248.57 619.48L241.63 616.55L234.83 613.38L228.19 609.97L221.7 606.33L215.38 602.46L209.23 598.37L203.25 594.07L197.46 589.56L191.86 584.84L186.45 579.93L181.25 574.82L176.25 569.54L171.47 564.07L166.91 558.43L162.58 552.62L158.48 546.65L154.62 540.53L151.01 534.26L147.65 527.84L144.55 521.29L141.72 514.6L139.15 507.79L136.87 500.86L134.87 493.82L133.16 486.67L131.74 479.42L130.63 472.07L129.83 464.63L129.35 457.11L129.18 449.51L129.35 441.91L129.83 434.39L130.63 426.95L131.74 419.6L133.16 412.35L134.87 405.2L136.87 398.16L139.15 391.23L141.72 384.42L144.55 377.73L147.65 371.18L151.01 364.76L154.62 358.49L158.48 352.36L162.58 346.4L166.91 340.59L171.47 334.95L176.25 329.48L181.25 324.19L186.45 319.09L191.86 314.18L193.88 312.48L193.83 312.48L193.83 49.28L193.86 47.55L193.97 45.84L194.14 44.15L194.37 42.48L194.68 40.84L195.04 39.21L195.47 37.61L195.96 36.04L196.51 34.49L197.12 32.97L197.78 31.48L198.5 30.03L199.28 28.6L200.1 27.21L200.98 25.85L201.91 24.54L202.89 23.26L203.91 22.01L204.98 20.81L206.1 19.65L207.26 18.54L208.46 17.47L209.7 16.44L210.98 15.47L212.3 14.54L213.65 13.66L215.04 12.83L216.47 12.06L217.93 11.34L219.41 10.68L220.93 10.07L222.48 9.52L224.05 9.03L225.65 8.6L227.28 8.23L228.93 7.93L230.6 7.69L232.29 7.52L234 7.42L235.72 7.38L269.29 7.38L271.14 7.42L272.97 7.53ZM288.35 430.86L287.75 430.92L287.17 431.02L286.6 431.16L286.04 431.33L285.5 431.54L284.98 431.78L284.48 432.05L283.99 432.35L283.53 432.69L283.09 433.05L282.68 433.44L282.29 433.85L281.93 434.29L281.6 434.75L281.29 435.23L281.02 435.74L280.78 436.26L280.57 436.8L280.4 437.35L280.26 437.92L280.16 438.51L280.1 439.1L280.08 439.71L280.08 444.54L280.09 445.35L280.13 446.15L280.19 446.96L280.28 447.75L280.39 448.55L280.53 449.34L280.69 450.12L280.87 450.9L281.07 451.67L281.3 452.43L281.56 453.19L281.83 453.94L282.13 454.68L282.45 455.41L282.8 456.13L283.16 456.84L283.55 457.53L283.96 458.22L284.39 458.9L284.84 459.56L285.31 460.21L285.8 460.85L286.32 461.47L286.85 462.08L288.82 464.24L289.53 464.97L290.28 465.63L291.06 466.23L291.88 466.76L292.73 467.23L293.6 467.63L294.49 467.97L295.39 468.24L296.32 468.45L297.25 468.59L298.18 468.67L299.12 468.68L300.06 468.63L300.99 468.51L301.92 468.33L302.83 468.09L303.73 467.78L304.6 467.41L305.46 466.97L306.28 466.47L307.08 465.91L307.84 465.28L308.56 464.59L309.25 463.83L311.07 461.66L311.54 461.08L311.99 460.5L312.42 459.9L312.83 459.29L313.22 458.67L313.6 458.04L313.96 457.4L314.29 456.75L314.61 456.09L314.91 455.42L315.19 454.74L315.45 454.06L315.69 453.37L315.91 452.67L316.11 451.97L316.29 451.26L316.45 450.55L316.58 449.83L316.7 449.1L316.8 448.37L316.87 447.64L316.93 446.9L316.96 446.17L316.97 445.42L316.97 441.33L316.95 440.61L316.87 439.91L316.76 439.22L316.59 438.54L316.39 437.89L316.15 437.25L315.86 436.63L315.54 436.04L315.18 435.46L314.78 434.92L314.36 434.4L313.9 433.91L313.41 433.45L312.89 433.02L312.34 432.63L311.77 432.27L311.18 431.95L310.56 431.66L309.92 431.42L309.27 431.21L308.59 431.05L307.9 430.93L307.19 430.86L306.48 430.84L288.95 430.84L288.35 430.86ZM269 349.68L267.95 349.87L266.92 350.13L265.9 350.45L264.9 350.83L263.92 351.27L262.96 351.77L262.01 352.33L261.08 352.94L260.18 353.61L259.29 354.33L258.43 355.11L257.59 355.93L256.77 356.81L255.98 357.73L255.21 358.7L254.47 359.71L253.76 360.77L253.07 361.87L252.41 363.01L251.78 364.2L251.18 365.42L250.61 366.68L250.08 367.97L249.57 369.3L249.1 370.66L248.66 372.06L248.26 373.48L247.89 374.94L247.56 376.42L247.26 377.93L247.01 379.47L246.79 381.03L246.61 382.61L246.47 384.21L246.37 385.84L246.32 387.48L246.31 389.14L246.34 390.82L246.41 392.49L246.53 394.15L246.69 395.78L246.89 397.4L247.13 399L247.41 400.57L247.72 402.11L248.07 403.63L248.46 405.13L248.89 406.59L249.35 408.02L249.84 409.43L250.37 410.8L250.92 412.14L251.51 413.44L252.13 414.7L252.78 415.93L253.45 417.12L254.16 418.27L254.89 419.38L255.64 420.44L256.42 421.46L257.23 422.44L258.06 423.37L258.91 424.25L259.78 425.08L260.67 425.86L261.58 426.59L262.51 427.27L263.45 427.89L264.42 428.46L265.4 428.96L266.39 429.42L267.4 429.81L268.42 430.14L269.46 430.41L270.5 430.61L271.56 430.75L272.63 430.83L273.7 430.83L274.77 430.77L275.83 430.64L276.88 430.45L277.91 430.19L278.93 429.87L279.93 429.49L280.91 429.05L281.87 428.55L282.82 427.99L283.75 427.38L284.65 426.71L285.54 425.99L286.4 425.22L287.24 424.39L288.06 423.52L288.85 422.59L289.62 421.63L290.36 420.61L291.07 419.55L291.76 418.45L292.42 417.31L293.05 416.13L293.65 414.91L294.22 413.65L294.76 412.35L295.26 411.02L295.73 409.66L296.17 408.26L296.57 406.84L296.94 405.38L297.27 403.9L297.57 402.39L297.83 400.85L298.04 399.29L298.22 397.71L298.36 396.11L298.46 394.48L298.51 392.84L298.52 391.18L298.49 389.51L298.42 387.83L298.3 386.17L298.14 384.54L297.94 382.92L297.7 381.33L297.43 379.76L297.11 378.21L296.76 376.69L296.37 375.2L295.94 373.73L295.48 372.3L294.99 370.9L294.46 369.52L293.91 368.19L293.32 366.88L292.7 365.62L292.05 364.39L291.38 363.2L290.67 362.05L289.94 360.94L289.19 359.88L288.41 358.86L287.6 357.88L286.78 356.95L285.93 356.07L285.05 355.24L284.16 354.46L283.25 353.73L282.32 353.05L281.38 352.43L280.41 351.87L279.43 351.36L278.44 350.91L277.43 350.52L276.41 350.18L275.37 349.92L274.33 349.71L273.27 349.57L272.21 349.5L271.13 349.49L270.06 349.55L269 349.68ZM322.48 349.59L321.42 349.76L320.38 349.99L319.36 350.28L318.35 350.64L317.35 351.05L316.37 351.53L315.41 352.06L314.46 352.65L313.54 353.3L312.63 354L311.74 354.75L310.88 355.55L310.03 356.41L309.21 357.31L308.41 358.26L307.64 359.25L306.89 360.29L306.17 361.38L305.48 362.5L304.81 363.67L304.17 364.88L303.56 366.12L302.98 367.4L302.44 368.72L301.92 370.07L301.44 371.45L300.99 372.87L300.58 374.31L300.2 375.79L299.86 377.29L299.55 378.82L299.28 380.37L299.06 381.95L298.87 383.55L298.72 385.17L298.61 386.81L298.55 388.47L298.53 390.14L298.55 391.82L298.61 393.48L298.72 395.12L298.87 396.74L299.06 398.34L299.28 399.92L299.55 401.47L299.86 403L300.2 404.5L300.58 405.97L300.99 407.42L301.44 408.83L301.92 410.22L302.44 411.57L302.98 412.88L303.56 414.17L304.17 415.41L304.81 416.62L305.48 417.78L306.17 418.91L306.89 419.99L307.64 421.03L308.41 422.03L309.21 422.98L310.03 423.88L310.88 424.73L311.74 425.53L312.63 426.29L313.54 426.99L314.46 427.63L315.41 428.22L316.37 428.75L317.35 429.23L318.35 429.65L319.36 430L320.38 430.3L321.42 430.53L322.48 430.7L323.54 430.8L324.61 430.83L325.69 430.8L326.75 430.7L327.8 430.53L328.84 430.3L329.87 430L330.88 429.65L331.88 429.23L332.86 428.75L333.82 428.22L334.76 427.63L335.69 426.99L336.6 426.29L337.49 425.53L338.35 424.73L339.2 423.88L340.02 422.98L340.81 422.03L341.59 421.03L342.34 419.99L343.06 418.91L343.75 417.78L344.42 416.62L345.06 415.41L345.67 414.17L346.24 412.88L346.79 411.57L347.31 410.22L347.79 408.83L348.24 407.42L348.65 405.97L349.03 404.5L349.37 403L349.68 401.47L349.94 399.92L350.17 398.34L350.36 396.74L350.51 395.12L350.61 393.48L350.68 391.82L350.7 390.14L350.68 388.47L350.61 386.81L350.51 385.17L350.36 383.55L350.17 381.95L349.94 380.37L349.68 378.82L349.37 377.29L349.03 375.79L348.65 374.31L348.24 372.87L347.79 371.45L347.31 370.07L346.79 368.72L346.24 367.4L345.67 366.12L345.06 364.88L344.42 363.67L343.75 362.5L343.06 361.38L342.34 360.29L341.59 359.25L340.81 358.26L340.02 357.31L339.2 356.41L338.35 355.55L337.49 354.75L336.6 354L335.69 353.3L334.76 352.65L333.82 352.06L332.86 351.53L331.88 351.05L330.88 350.64L329.87 350.28L328.84 349.99L327.8 349.76L326.75 349.59L325.69 349.49L324.61 349.45L323.54 349.49L322.48 349.59Z" id="bpE9Oemal"></path></defs><g><g><use xlink:href="#bpE9Oemal" opacity="1" fill="#0084ff" fill-opacity="1"></use></g></g></svg>