<?xml version="1.0" encoding="UTF-8" standalone="no"?>
<!DOCTYPE svg PUBLIC "-//W3C//DTD SVG 1.1//EN" "http://www.w3.org/Graphics/SVG/1.1/DTD/svg11.dtd">
<svg version="1.1" xmlns="http://www.w3.org/2000/svg" xmlns:xlink="http://www.w3.org/1999/xlink" preserveAspectRatio="xMidYMid meet" viewBox="73.99999999999983 87.77659574468089 504.00000000000017 504" width="500" height="500"><defs><path d="M575 338.78C575 476.76 462.98 588.78 325 588.78C187.02 588.78 75 476.76 75 338.78C75 200.8 187.02 88.78 325 88.78C462.98 88.78 575 200.8 575 338.78Z" id="a649S1qfA"></path><path d="M276.26 117.49L277.55 117.62L278.82 117.8L280.08 118.03L281.32 118.31L282.54 118.64L283.75 119.01L284.93 119.43L286.09 119.9L287.23 120.41L288.34 120.95L289.43 121.55L290.49 122.18L291.52 122.85L292.53 123.56L293.51 124.3L294.46 125.09L295.37 125.9L296.26 126.76L297.11 127.64L297.93 128.56L298.71 129.51L299.46 130.48L300.17 131.49L300.84 132.53L301.47 133.59L302.06 134.68L302.61 135.79L303.12 136.93L303.58 138.09L304 139.27L304.38 140.47L304.7 141.69L304.98 142.93L305.21 144.19L305.4 145.47L305.53 146.76L305.61 148.06L305.63 149.38L305.63 301.64L307.39 301.54L313.11 301.43L318.84 301.54L320.59 301.64L320.59 147.43L320.62 146.2L320.69 144.98L320.82 143.77L320.99 142.58L321.2 141.4L321.46 140.24L321.77 139.1L322.12 137.97L322.51 136.87L322.95 135.78L323.42 134.72L323.93 133.68L324.49 132.66L325.08 131.67L325.71 130.7L326.37 129.75L327.07 128.84L327.8 127.95L328.56 127.1L329.36 126.27L330.19 125.47L331.05 124.71L331.93 123.97L332.85 123.28L333.79 122.61L334.76 121.99L335.75 121.4L336.77 120.84L337.81 120.33L338.87 119.85L339.96 119.42L341.06 119.03L342.19 118.68L343.33 118.37L344.49 118.11L345.67 117.89L346.86 117.72L348.07 117.6L349.29 117.53L350.52 117.5L374.09 117.5L375.41 117.53L376.71 117.61L378 117.74L379.28 117.92L380.54 118.15L381.78 118.43L383 118.76L384.2 119.13L385.38 119.55L386.54 120.02L387.68 120.52L388.79 121.07L389.88 121.67L390.95 122.3L391.98 122.97L392.99 123.68L393.97 124.42L394.91 125.21L395.83 126.02L396.72 126.87L397.57 127.76L398.39 128.68L399.17 129.63L399.91 130.6L400.62 131.61L401.29 132.65L401.93 133.71L402.52 134.8L403.07 135.91L403.57 137.05L404.04 138.21L404.46 139.39L404.83 140.59L405.16 141.81L405.44 143.05L405.67 144.31L405.85 145.59L405.98 146.88L406.06 148.18L406.09 149.5L406.09 335.35L407.49 336.54L411.33 340.05L415.03 343.69L418.58 347.47L421.98 351.37L425.22 355.4L428.3 359.55L431.22 363.81L433.96 368.19L436.53 372.67L438.91 377.25L441.12 381.93L443.13 386.71L444.95 391.57L446.58 396.52L448 401.56L449.22 406.66L450.22 411.84L451.01 417.09L451.58 422.41L451.93 427.78L452.04 433.21L451.93 438.64L451.58 444.01L451.01 449.32L450.22 454.57L449.22 459.75L448 464.86L446.58 469.89L444.95 474.84L443.13 479.71L441.12 484.48L438.91 489.16L436.53 493.75L433.96 498.23L431.22 502.6L428.3 506.86L425.22 511.01L421.98 515.04L418.58 518.95L415.03 522.73L411.33 526.37L407.49 529.88L403.51 533.25L399.39 536.47L395.14 539.55L390.77 542.47L386.27 545.23L381.66 547.83L376.94 550.27L372.1 552.53L367.17 554.62L362.13 556.53L357.01 558.26L351.79 559.8L346.48 561.15L341.1 562.31L335.64 563.26L330.1 564.01L324.5 564.55L318.84 564.88L313.11 564.99L307.39 564.88L301.73 564.55L296.12 564.01L290.59 563.26L285.13 562.31L279.74 561.15L274.44 559.8L269.22 558.26L264.09 556.53L259.06 554.62L254.12 552.53L249.29 550.27L244.57 547.83L239.95 545.23L235.46 542.47L231.09 539.55L226.84 536.47L222.72 533.25L218.74 529.88L214.9 526.37L211.2 522.73L207.64 518.95L204.25 515.04L201 511.01L197.92 506.86L195.01 502.6L192.27 498.23L189.7 493.75L187.31 489.16L185.11 484.48L183.09 479.71L181.27 474.84L179.65 469.89L178.22 464.86L177.01 459.75L176 454.57L175.21 449.32L174.65 444.01L174.3 438.64L174.18 433.21L174.3 427.78L174.65 422.41L175.21 417.09L176 411.84L177.01 406.66L178.22 401.56L179.65 396.52L181.27 391.57L183.09 386.71L185.11 381.93L187.31 377.25L189.7 372.67L192.27 368.19L195.01 363.81L197.92 359.55L201 355.4L204.25 351.37L207.64 347.47L211.2 343.69L214.9 340.05L218.74 336.54L220.17 335.32L220.14 335.32L220.14 147.31L220.16 146.08L220.24 144.86L220.36 143.65L220.53 142.46L220.75 141.28L221.01 140.12L221.31 138.98L221.66 137.85L222.06 136.75L222.49 135.66L222.96 134.6L223.48 133.56L224.03 132.54L224.62 131.55L225.25 130.58L225.91 129.64L226.61 128.72L227.34 127.83L228.11 126.98L228.9 126.15L229.73 125.35L230.59 124.59L231.48 123.86L232.39 123.16L233.33 122.49L234.3 121.87L235.29 121.28L236.31 120.72L237.35 120.21L238.42 119.73L239.5 119.3L240.61 118.91L241.73 118.56L242.87 118.25L244.03 117.99L245.21 117.77L246.4 117.6L247.61 117.48L248.83 117.41L250.07 117.38L273.63 117.38L274.95 117.41L276.26 117.49ZM287.18 419.9L286.59 419.99L286.01 420.12L285.46 420.31L284.93 420.55L284.43 420.84L283.96 421.16L283.52 421.53L283.11 421.93L282.75 422.37L282.42 422.85L282.14 423.35L281.9 423.88L281.71 424.43L281.57 425L281.48 425.6L281.46 426.21L281.46 429.66L281.47 430.47L281.53 431.28L281.61 432.09L281.74 432.89L281.89 433.68L282.08 434.46L282.31 435.24L282.56 436L282.85 436.75L283.17 437.49L283.53 438.21L283.91 438.92L284.32 439.61L284.77 440.28L285.24 440.94L285.75 441.58L286.28 442.2L287.65 443.71L288.37 444.43L289.15 445.06L289.97 445.6L290.83 446.04L291.73 446.39L292.64 446.65L293.58 446.81L294.52 446.88L295.46 446.87L296.4 446.76L297.33 446.55L298.24 446.26L299.11 445.87L299.96 445.4L300.76 444.83L301.51 444.17L302.2 443.42L303.48 441.9L303.94 441.31L304.38 440.71L304.8 440.1L305.19 439.46L305.55 438.82L305.88 438.16L306.19 437.49L306.47 436.81L306.72 436.11L306.94 435.41L307.14 434.7L307.3 433.98L307.44 433.25L307.54 432.52L307.62 431.78L307.66 431.04L307.68 430.29L307.68 427.37L307.65 426.64L307.54 425.94L307.38 425.26L307.16 424.61L306.87 423.98L306.54 423.39L306.15 422.83L305.72 422.31L305.24 421.83L304.72 421.4L304.16 421.01L303.57 420.68L302.94 420.39L302.29 420.17L301.61 420.01L300.91 419.91L300.18 419.87L287.79 419.87L287.18 419.9ZM273.08 361.98L272.1 362.22L271.14 362.53L270.2 362.92L269.28 363.39L268.39 363.93L267.52 364.54L266.68 365.22L265.86 365.97L265.08 366.77L264.32 367.65L263.6 368.58L262.91 369.56L262.25 370.6L261.63 371.7L261.05 372.84L260.51 374.04L260 375.28L259.54 376.56L259.12 377.88L258.74 379.25L258.41 380.64L258.12 382.08L257.89 383.55L257.7 385.04L257.56 386.57L257.48 388.12L257.45 389.69L257.47 391.28L257.55 392.87L257.68 394.44L257.86 395.99L258.09 397.5L258.37 398.98L258.7 400.44L259.08 401.85L259.5 403.23L259.96 404.58L260.46 405.88L261 407.13L261.59 408.35L262.2 409.51L262.86 410.62L263.55 411.68L264.27 412.69L265.02 413.64L265.8 414.53L266.61 415.37L267.44 416.13L268.3 416.84L269.19 417.47L270.09 418.04L271.02 418.53L271.96 418.95L272.92 419.3L273.9 419.56L274.9 419.75L275.9 419.85L276.92 419.87L277.94 419.8L278.93 419.65L279.91 419.41L280.87 419.1L281.81 418.7L282.73 418.24L283.62 417.7L284.49 417.09L285.33 416.41L286.15 415.66L286.93 414.85L287.69 413.98L288.41 413.05L289.1 412.07L289.76 411.02L290.38 409.93L290.96 408.78L291.51 407.59L292.01 406.35L292.47 405.07L292.89 403.75L293.27 402.38L293.6 400.98L293.89 399.55L294.12 398.08L294.31 396.59L294.45 395.06L294.54 393.51L294.57 391.94L294.54 390.35L294.47 388.75L294.34 387.19L294.15 385.64L293.92 384.13L293.64 382.64L293.31 381.19L292.94 379.77L292.52 378.39L292.05 377.05L291.55 375.75L291.01 374.49L290.43 373.28L289.81 372.12L289.15 371.01L288.47 369.94L287.75 368.94L287 367.99L286.21 367.09L285.41 366.26L284.57 365.49L283.71 364.79L282.83 364.16L281.92 363.59L281 363.1L280.05 362.68L279.09 362.33L278.11 362.07L277.12 361.88L276.11 361.78L275.09 361.76L274.08 361.83L273.08 361.98ZM311.09 361.91L310.11 362.12L309.14 362.41L308.19 362.77L307.25 363.22L306.34 363.74L305.46 364.32L304.59 364.98L303.76 365.71L302.95 366.5L302.16 367.35L301.41 368.26L300.69 369.23L300 370.25L299.35 371.33L298.73 372.46L298.15 373.64L297.6 374.87L297.1 376.14L296.64 377.45L296.22 378.8L295.84 380.19L295.51 381.62L295.23 383.08L295 384.57L294.81 386.09L294.68 387.64L294.6 389.21L294.57 390.8L294.6 392.39L294.68 393.97L294.81 395.51L295 397.03L295.23 398.52L295.51 399.98L295.84 401.41L296.22 402.8L296.64 404.15L297.1 405.47L297.6 406.74L298.15 407.96L298.73 409.14L299.35 410.27L300 411.35L300.69 412.37L301.41 413.34L302.16 414.25L302.95 415.11L303.76 415.89L304.59 416.62L305.46 417.28L306.34 417.87L307.25 418.38L308.19 418.83L309.14 419.19L310.11 419.48L311.09 419.69L312.1 419.82L313.11 419.87L314.13 419.82L315.13 419.69L316.12 419.48L317.09 419.19L318.04 418.83L318.97 418.38L319.88 417.87L320.77 417.28L321.63 416.62L322.47 415.89L323.28 415.11L324.06 414.25L324.82 413.34L325.54 412.37L326.22 411.35L326.88 410.27L327.5 409.14L328.08 407.96L328.62 406.74L329.13 405.47L329.59 404.15L330.01 402.8L330.38 401.41L330.71 399.98L331 398.52L331.23 397.03L331.42 395.51L331.55 393.97L331.63 392.39L331.66 390.8L331.63 389.21L331.55 387.64L331.42 386.09L331.23 384.57L331 383.08L330.71 381.62L330.38 380.19L330.01 378.8L329.59 377.45L329.13 376.14L328.62 374.87L328.08 373.64L327.5 372.46L326.88 371.33L326.22 370.25L325.54 369.23L324.82 368.26L324.06 367.35L323.28 366.5L322.47 365.71L321.63 364.98L320.77 364.32L319.88 363.74L318.97 363.22L318.04 362.77L317.09 362.41L316.12 362.12L315.13 361.91L314.13 361.78L313.11 361.74L312.1 361.78L311.09 361.91Z" id="aJtC3A9FR"></path></defs><g><g><use xlink:href="#a649S1qfA" opacity="1" fill="#0084ff" fill-opacity="1"></use></g><g><use xlink:href="#aJtC3A9FR" opacity="1" fill="#ffffff" fill-opacity="1"></use></g></g></svg>